<?xml version="1.0" encoding="iso-8859-1"?>
<!-- Uploaded to: SVG Repo, www.svgrepo.com, Generator: SVG Repo Mixer Tools -->
<!DOCTYPE svg PUBLIC "-//W3C//DTD SVG 1.1//EN" "http://www.w3.org/Graphics/SVG/1.1/DTD/svg11.dtd">
<svg fill="#000000" version="1.1" id="Capa_1" xmlns="http://www.w3.org/2000/svg" xmlns:xlink="http://www.w3.org/1999/xlink" 
	 width="800px" height="800px" viewBox="0 0 122.925 122.926"
	 xml:space="preserve">
<g>
	<g>
		<circle cx="61.663" cy="12.72" r="12.72"/>
		<path d="M97.187,38.642c-11.289,0-16.66-3.453-23.461-7.826c-1.174-0.755-2.365-1.521-3.604-2.279
			c-0.213-0.131-0.438-0.225-0.66-0.319c-1.417-0.945-3.008-1.642-4.631-2.039l-3.169,3.188l-3.073-3.225
			c-0.01,0.002-0.021,0.003-0.031,0.005c-1.505,0.36-2.982,0.982-4.321,1.817c-0.493,0.118-0.979,0.291-1.434,0.571
			c-1.238,0.759-2.43,1.524-3.604,2.279c-6.801,4.373-12.173,7.826-23.461,7.826c-2.728,0-4.938,2.211-4.938,4.938
			c0,2.727,2.211,4.938,4.938,4.938c10.424,0,17.195-2.58,22.905-5.779v22.576c0,1.328,0.258,2.567,0.71,3.709
			c-0.035,0.256-0.058,0.516-0.058,0.78l0.003,47.289c0,3.224,2.613,5.836,5.836,5.835c3.223,0,5.836-2.613,5.835-5.836
			l-0.001-19.758c0.073,0.082,0.142,0.166,0.221,0.244c1.139,1.137,2.63,1.705,4.125,1.705s2.989-0.57,4.129-1.713
			c0.054-0.053,5.357-5.367,10.551-10.826C91.48,74.669,92.351,72.955,91.691,69.581c-1.139-5.836-7.445-5.741-17.01-5.386V42.959
			c5.627,3.096,12.323,5.56,22.506,5.56c2.729,0,4.938-2.211,4.938-4.938C102.125,40.854,99.916,38.642,97.187,38.642z
			 M61.183,89.322c-0.077,0.076-0.144,0.158-0.215,0.238l-0.001-13.055c0.231,0.012,0.462,0.027,0.695,0.027
			c0.197,0,0.393-0.016,0.589-0.023c0.29,0.021,0.584,0.03,0.883,0.01c3.583-0.271,7.535-0.492,11.042-0.625
			C70.413,79.93,65.591,84.906,61.183,89.322z"/>
	</g>
</g>
</svg>